# Aspose.3D Wavefront OBJ Exporter
# Copyright 2004-2024 Aspose Pty Ltd.
# File created: 10/22/2024 21:41:29

mtllib material.lib
g Cube

#
# object Cube
#

v -49.595337 99.999985 -100.000015
v -49.595337 -100.000015 -99.999985
v -49.595337 100.000015 99.999985
v -49.595337 -99.999985 100.000015
v -249.59534 99.999985 -100.000015
v -249.59534 -100.000015 -99.999985
v -249.59534 100.000015 99.999985
v -249.59534 -99.999985 100.000015
# 8 vertices

vn 0 1 -1.6292068E-07
vn 0 1 -1.6292068E-07
vn 0 1 -1.6292068E-07
vn 0 1 -1.6292068E-07
vn 0 1.6292068E-07 1
vn 0 1.6292068E-07 1
vn 0 1.6292068E-07 1
vn 0 1.6292068E-07 1
vn -1 0 0
vn -1 0 0
vn -1 0 0
vn -1 0 0
vn 0 -1 1.6292068E-07
vn 0 -1 1.6292068E-07
vn 0 -1 1.6292068E-07
vn 0 -1 1.6292068E-07
vn 1 0 0
vn 1 0 0
vn 1 0 0
vn 1 0 0
vn 0 -1.6292068E-07 -1
vn 0 -1.6292068E-07 -1
vn 0 -1.6292068E-07 -1
vn 0 -1.6292068E-07 -1
# 24 vertex normals

vt 0.375 0 0
vt 0.625 0 0
vt 0.375 0.25 0
vt 0.625 0.25 0
vt 0.125 0.5 0
vt 0.375 0.5 0
vt 0.625 0.5 0
vt 0.875 0.5 0
vt 0.125 0.75 0
vt 0.375 0.75 0
vt 0.625 0.75 0
vt 0.875 0.75 0
vt 0.375 1 0
vt 0.625 1 0
# 14 texture coords

usemtl Material
s 1
f 1/7/1 5/8/2 7/12/3 3/11/4
f 4/10/5 3/11/6 7/14/7 8/13/8
f 8/1/9 7/2/10 5/4/11 6/3/12
f 6/5/13 2/6/14 4/10/15 8/9/16
f 2/6/17 1/7/18 3/11/19 4/10/20
f 6/3/21 5/4/22 1/7/23 2/6/24
#6 polygons

g Cube.001

#
# object Cube.001
#

v 261.20862 99.999985 -100.000015
v 261.20862 -100.000015 -99.999985
v 261.20862 100.000015 99.999985
v 261.20862 -99.999985 100.000015
v 61.20862 99.999985 -100.000015
v 61.20862 -100.000015 -99.999985
v 61.20862 100.000015 99.999985
v 61.20862 -99.999985 100.000015
# 8 vertices

vn 0 1 -1.6292068E-07
vn 0 1 -1.6292068E-07
vn 0 1 -1.6292068E-07
vn 0 1 -1.6292068E-07
vn 0 1.6292068E-07 1
vn 0 1.6292068E-07 1
vn 0 1.6292068E-07 1
vn 0 1.6292068E-07 1
vn -1 0 0
vn -1 0 0
vn -1 0 0
vn -1 0 0
vn 0 -1 1.6292068E-07
vn 0 -1 1.6292068E-07
vn 0 -1 1.6292068E-07
vn 0 -1 1.6292068E-07
vn 1 0 0
vn 1 0 0
vn 1 0 0
vn 1 0 0
vn 0 -1.6292068E-07 -1
vn 0 -1.6292068E-07 -1
vn 0 -1.6292068E-07 -1
vn 0 -1.6292068E-07 -1
# 24 vertex normals

vt 0.375 0 0
vt 0.625 0 0
vt 0.375 0.25 0
vt 0.625 0.25 0
vt 0.125 0.5 0
vt 0.375 0.5 0
vt 0.625 0.5 0
vt 0.875 0.5 0
vt 0.125 0.75 0
vt 0.375 0.75 0
vt 0.625 0.75 0
vt 0.875 0.75 0
vt 0.375 1 0
vt 0.625 1 0
# 14 texture coords

usemtl Material.001
s 2
f 9/21/25 13/22/26 15/26/27 11/25/28
f 12/24/29 11/25/30 15/28/31 16/27/32
f 16/15/33 15/16/34 13/18/35 14/17/36
f 14/19/37 10/20/38 12/24/39 16/23/40
f 10/20/41 9/21/42 11/25/43 12/24/44
f 14/17/45 13/18/46 9/21/47 10/20/48
#6 polygons

g Cube.002

#
# object Cube.002
#

v 100.119865 980.43945 -100.00007
v 100.119865 91.0594 -99.99993
v 100.119865 980.4395 99.99993
v 100.119865 91.05943 100.00007
v -99.880135 980.43945 -100.00007
v -99.880135 91.0594 -99.99993
v -99.880135 980.4395 99.99993
v -99.880135 91.05943 100.00007
# 8 vertices

vn 0 1 -1.6292068E-07
vn 0 1 -1.6292068E-07
vn 0 1 -1.6292068E-07
vn 0 1 -1.6292068E-07
vn 0 1.6292068E-07 1
vn 0 1.6292068E-07 1
vn 0 1.6292068E-07 1
vn 0 1.6292068E-07 1
vn -1 0 0
vn -1 0 0
vn -1 0 0
vn -1 0 0
vn 0 -1 1.6292068E-07
vn 0 -1 1.6292068E-07
vn 0 -1 1.6292068E-07
vn 0 -1 1.6292068E-07
vn 1 0 0
vn 1 0 0
vn 1 0 0
vn 1 0 0
vn 0 -1.6292068E-07 -1
vn 0 -1.6292068E-07 -1
vn 0 -1.6292068E-07 -1
vn 0 -1.6292068E-07 -1
# 24 vertex normals

vt 0.375 0 0
vt 0.625 0 0
vt 0.375 0.25 0
vt 0.625 0.25 0
vt 0.125 0.5 0
vt 0.375 0.5 0
vt 0.625 0.5 0
vt 0.875 0.5 0
vt 0.125 0.75 0
vt 0.375 0.75 0
vt 0.625 0.75 0
vt 0.875 0.75 0
vt 0.375 1 0
vt 0.625 1 0
# 14 texture coords

usemtl Material.002
s 4
f 17/35/49 21/36/50 23/40/51 19/39/52
f 20/38/53 19/39/54 23/42/55 24/41/56
f 24/29/57 23/30/58 21/32/59 22/31/60
f 22/33/61 18/34/62 20/38/63 24/37/64
f 18/34/65 17/35/66 19/39/67 20/38/68
f 22/31/69 21/32/70 17/35/71 18/34/72
#6 polygons

